<?xml version="1.0" encoding="UTF-8"?>
<!DOCTYPE svg PUBLIC "-//W3C//DTD SVG 1.1//EN" "http://www.w3.org/Graphics/SVG/1.1/DTD/svg11.dtd">
<!-- Creator: CorelDRAW -->
<svg xmlns="http://www.w3.org/2000/svg" xml:space="preserve" width="200px" height="200px" version="1.1" style="shape-rendering:geometricPrecision; text-rendering:geometricPrecision; image-rendering:optimizeQuality; fill-rule:evenodd; clip-rule:evenodd"
viewBox="0 0 200 200"
 xmlns:xlink="http://www.w3.org/1999/xlink"
 xmlns:xodm="http://www.corel.com/coreldraw/odm/2003">
 <defs>
  <style type="text/css">
   <![CDATA[
    .fil2 {fill:#2F3C54}
    .fil1 {fill:#E8C152}
    .fil0 {fill:#EFE552}
   ]]>
  </style>
 </defs>
 <g id="Capa_x0020_1">
  <metadata id="CorelCorpID_0Corel-Layer"/>
  <g id="_2628261387136">
   <path class="fil0" d="M139.77 120.2l1.69 0 0 -3.37 1.68 0 0 1.69 1.68 0 0 3.36 1.68 0 0 6.73 -1.68 0 0 5.05 -1.68 0 0 -3.37 -1.68 0 0 -1.68 -1.69 0 0 -8.41zm1.69 -28.6l1.68 0 0 1.68 5.04 0 0 1.68 1.69 0 0 1.68 1.68 0 0 6.73 1.68 0 0 1.69 -3.36 0 0 -1.69 -3.37 0 0 -1.68 -1.68 0 0 -1.68 -1.68 0 0 -5.05 -1.68 0 0 -3.36zm0 0l-1.69 0 0 6.73 1.69 0 0 15.14 -1.69 0 0 1.68 -1.68 0 0 6.73 -1.68 0 0 3.37 -1.69 0 0 1.68 -1.68 0 0 3.36 -1.68 0 0 6.73 -1.68 0 0 11.78 -1.69 0 0 1.68 -1.68 0 0 1.68 -1.68 0 0 1.69 -1.68 0 0 -11.78 1.68 0 0 -1.68 1.68 0 0 -1.68 1.68 0 0 -3.37 -1.68 0 0 1.68 -1.68 0 0 1.69 -1.68 0 0 1.68 -3.37 0 0 1.68 -1.68 0 0 1.68 -3.36 0 0 1.68 -1.69 0 0 1.69 -1.68 0 0 1.68 -1.68 0 0 1.68 -1.69 0 0 1.68 -1.68 0 0 3.37 -1.68 0 0 1.68 -1.68 0 0 1.68 -5.05 0 0 1.69 -3.36 0 0 -1.69 -5.05 0 0 1.69 3.36 0 0 1.68 -6.73 0 0 1.68 10.1 0 0 1.68 -6.73 0 0 1.69 3.36 0 0 1.68 -3.36 0 0 1.68 6.73 0 0 1.68 -6.73 0 0 1.69 3.36 0 0 1.68 -6.73 0 0 1.68 10.1 0 0 1.68 -6.73 0 0 1.68 3.36 0 0 1.69 -3.36 0 0 1.68 6.73 0 0 1.68 -6.73 0 0 1.69 3.36 0 0 1.68 -6.73 0 0 1.68 3.37 0 0 1.68 85.8 0 0 -1.68 3.37 0 0 -1.68 1.68 0 0 -1.68 1.68 0 0 -1.69 1.69 0 0 -3.36 1.68 0 0 -158.15 -1.68 0 0 -3.36 -1.69 0 0 -1.69 -1.68 0 0 -1.68 -1.68 0 0 -1.68 -3.37 0 0 -1.69 -89.17 0 0 1.69 6.73 0 0 1.68 -3.36 0 0 5.05 3.36 0 0 1.68 -3.36 0 0 1.68 3.36 0 0 1.68 -6.73 0 0 1.69 6.73 0 0 1.68 -3.36 0 0 1.68 3.36 0 0 1.68 -3.36 0 0 1.69 3.36 0 0 1.68 -3.36 0 0 1.68 3.36 0 0 1.68 -6.73 0 0 1.69 6.73 0 0 1.68 -3.36 0 0 1.68 8.41 0 0 3.37 -1.68 0 0 3.36 -1.68 0 0 1.68 -1.69 0 0 1.69 -3.36 0 0 1.68 -3.37 0 0 1.68 16.83 0 0 -1.68 6.73 0 0 -1.68 3.36 0 0 -1.69 1.69 0 0 -1.68 6.73 0 0 1.68 5.04 0 0 1.69 -1.68 0 0 1.68 -3.36 0 0 1.68 -11.78 0 0 1.68 3.36 0 0 1.68 5.05 0 0 1.69 1.68 0 0 1.68 3.37 0 0 1.68 5.04 0 0 1.69 11.78 0 0 1.68 1.69 0 0 1.68 1.68 0 0 1.68 1.68 0 0 1.69 -10.1 0 0 -1.69 -1.68 0 0 -1.68 -1.68 0 0 -1.68 -3.37 0 0 1.68 1.69 0 0 1.68 1.68 0 0 3.37 1.68 0 0 1.68 1.68 0 0 3.36 1.69 0 0 1.69 1.68 0 0 3.36 1.68 0 0 1.68 1.69 0 0 1.69z"/>
   <path class="fil1" d="M80.89 152.16l-3.37 0 0 1.69 -8.41 0 0 -1.69 -1.68 0 0 -1.68 1.68 0 0 -1.68 1.68 0 0 -1.68 10.1 0 0 1.68 1.68 0 0 1.68 -1.68 0 0 1.68zm-16.83 -16.82l0 1.68 -11.78 0 0 -1.68 -1.68 0 0 -1.68 -1.68 0 0 -1.69 -1.68 0 0 -1.68 10.09 0 0 1.68 1.69 0 0 1.69 1.68 0 0 1.68 3.36 0zm-13.46 -20.19l-1.68 0 0 -1.68 -5.05 0 0 -1.68 -1.68 0 0 -1.69 -1.68 0 0 -5.04 -1.68 0 0 -3.37 3.36 0 0 1.68 3.37 0 0 1.69 1.68 0 0 1.68 1.68 0 0 5.05 1.68 0 0 3.36zm38.7 77.39l0 -1.68 -3.37 0 0 -1.68 6.73 0 0 -1.68 -3.36 0 0 -1.69 6.73 0 0 -1.68 -6.73 0 0 -1.68 3.36 0 0 -1.69 -3.36 0 0 -1.68 6.73 0 0 -1.68 -10.1 0 0 -1.68 6.73 0 0 -1.68 -3.36 0 0 -1.69 6.73 0 0 -1.68 -6.73 0 0 -1.68 3.36 0 0 -1.68 -3.36 0 0 -1.69 6.73 0 0 -1.68 -10.1 0 0 -1.68 6.73 0 0 -1.68 -3.36 0 0 -1.69 5.05 0 0 -1.68 1.68 0 0 -3.36 1.68 0 0 -1.69 1.68 0 0 -1.68 6.73 0 0 -1.68 1.68 0 0 -1.68 -8.41 0 0 1.68 -13.46 0 0 -1.68 -1.68 0 0 -1.69 -6.73 0 0 -1.68 -3.36 0 0 -1.68 -1.69 0 0 -1.68 -3.36 0 0 -1.68 -3.36 0 0 -1.69 1.68 0 0 -1.68 -3.37 0 0 -1.68 -1.68 0 0 -1.69 -1.68 0 0 -1.68 -1.68 0 0 -3.36 -1.69 0 0 -3.37 -1.68 0 0 -1.68 -1.68 0 0 -3.36 -1.69 0 0 -1.69 -1.68 0 0 -1.68 1.68 0 0 -18.51 -1.68 0 0 -6.73 -1.68 0 0 -3.36 -1.68 0 0 -1.68 -1.68 0 0 -6.73 1.68 0 0 -3.37 1.68 0 0 1.69 1.68 0 0 1.68 1.68 0 0 15.14 1.69 0 0 -6.73 1.68 0 0 -3.37 1.68 0 0 -3.36 1.69 0 0 -1.68 1.68 0 0 -6.73 1.68 0 0 -11.78 1.68 0 0 -1.68 1.69 0 0 -1.68 1.68 0 0 -1.69 3.36 0 0 8.41 -1.68 0 0 3.37 -1.68 0 0 1.68 3.36 0 0 -1.68 1.68 0 0 -1.68 3.37 0 0 -1.69 1.68 0 0 -1.68 3.37 0 0 -1.68 1.68 0 0 -1.68 1.68 0 0 -1.68 1.68 0 0 -3.37 1.69 0 0 -3.36 3.36 0 0 -1.69 5.05 0 0 -1.68 -6.73 0 0 -1.68 3.36 0 0 -1.68 -6.73 0 0 -1.69 6.73 0 0 -1.68 -3.36 0 0 -1.68 3.36 0 0 -1.68 -3.36 0 0 -1.69 3.36 0 0 -1.68 -3.36 0 0 -1.68 3.36 0 0 -1.68 -6.73 0 0 -1.69 6.73 0 0 -1.68 -3.36 0 0 -1.68 3.36 0 0 -1.68 -3.36 0 0 -5.05 3.36 0 0 -1.68 -6.73 0 0 -1.69 -67.29 0 0 1.69 -3.37 0 0 1.68 -3.36 0 0 1.68 -1.69 0 0 3.37 -1.68 0 0 1.68 -1.68 0 0 158.15 1.68 0 0 3.36 1.68 0 0 1.69 1.69 0 0 1.68 1.68 0 0 1.68 3.36 0 0 1.68 72.35 0z"/>
   <path class="fil1" d="M94.35 135.34l3.36 0 0 -1.68 5.05 0 0 1.68 3.36 0 0 1.68 6.73 0 0 1.69 -8.41 0 0 1.68 -6.73 0 0 -1.68 -3.36 0 0 -3.37zm-16.83 -5.05l6.73 0 0 1.68 1.68 0 0 1.69 1.69 0 0 3.36 1.68 0 0 1.69 1.68 0 0 1.68 -3.36 0 0 -1.68 -5.05 0 0 -1.69 -3.37 0 0 -3.36 -1.68 0 0 -3.37zm50.47 -5.04l0 1.68 -3.36 0 0 1.68 -1.68 0 0 1.68 -1.68 0 0 1.68 -1.69 0 0 1.69 -8.41 0 0 -3.37 1.68 0 0 -1.68 3.37 0 0 -1.68 6.73 0 0 -1.68 5.04 0zm5.05 -16.83l0 3.37 -1.68 0 0 5.04 -1.68 0 0 3.37 -3.37 0 0 1.68 -3.36 0 0 -5.05 1.68 0 0 -3.36 1.68 0 0 -1.68 3.37 0 0 -1.69 1.68 0 0 -1.68 1.68 0zm-65.61 -15.14l-1.68 0 0 1.68 -3.37 0 0 1.68 -1.68 0 0 -6.73 1.68 0 0 -1.68 1.68 0 0 -1.68 1.69 0 0 -1.68 3.36 0 0 6.73 -1.68 0 0 1.68zm50.47 -21.87l1.68 0 0 3.36 1.69 0 0 3.37 3.36 0 0 3.36 1.68 0 0 8.41 -1.68 0 0 -1.68 -1.68 0 0 -1.68 -1.68 0 0 -1.68 -1.69 0 0 -8.41 -1.68 0 0 -5.05zm-15.14 -3.37l6.73 0 0 1.69 1.68 0 0 1.68 1.68 0 0 1.68 1.69 0 0 3.37 -6.74 0 0 -1.69 -1.68 0 0 -1.68 -1.68 0 0 -3.36 -1.68 0 0 -1.69zm25.23 57.21l0 -1.69 3.37 0 0 -1.68 3.36 0 0 -5.05 1.69 0 0 -3.36 1.68 0 0 -8.41 -1.68 0 0 1.68 -1.69 0 0 1.68 -1.68 0 0 -3.36 1.68 0 0 -1.69 1.69 0 0 -1.68 1.68 0 0 -6.73 -1.68 0 0 -5.05 -1.69 0 0 -5.04 -3.36 0 0 10.09 1.68 0 0 6.73 -1.68 0 0 3.37 -1.68 0 0 1.68 -1.69 0 0 -5.05 -1.68 0 0 -5.05 1.68 0 0 -3.36 1.69 0 0 -15.14 -1.69 0 0 -1.68 -1.68 0 0 -1.69 -1.68 0 0 -1.68 -1.68 0 0 -1.68 -1.68 0 0 -1.68 -1.69 0 0 -1.69 -1.68 0 0 3.37 -1.68 0 0 -3.37 -1.68 0 0 -1.68 -1.69 0 0 -1.68 -5.05 0 0 -1.69 -8.41 0 0 1.69 1.69 0 0 1.68 -3.37 0 0 -1.68 -1.68 0 0 -1.69 -13.46 0 0 1.69 -3.37 0 0 1.68 -3.36 0 0 1.68 11.78 0 0 -1.68 6.73 0 0 1.68 3.36 0 0 1.69 1.68 0 0 1.68 -3.36 0 0 1.68 -6.73 0 0 -1.68 -3.37 0 0 -1.68 -15.14 0 0 1.68 -1.68 0 0 1.68 -1.68 0 0 1.68 -1.68 0 0 1.69 -1.69 0 0 1.68 -1.68 0 0 3.36 1.68 0 0 -1.68 3.37 0 0 -1.68 3.36 0 0 -1.68 1.68 0 0 -1.69 1.69 0 0 -1.68 8.41 0 0 1.68 -1.68 0 0 1.69 -1.69 0 0 1.68 -1.68 0 0 1.68 -8.41 0 0 1.68 -3.36 0 0 1.68 -3.37 0 0 1.69 -3.36 0 0 1.68 -1.69 0 0 5.05 -1.68 0 0 6.73 -1.68 0 0 5.04 1.68 0 0 13.46 1.68 0 0 3.37 1.69 0 0 3.36 1.68 0 0 -11.77 -1.68 0 0 -6.73 1.68 0 0 -1.69 1.68 0 0 -3.36 1.68 0 0 3.36 1.69 0 0 8.42 -1.69 0 0 1.68 -1.68 0 0 15.14 1.68 0 0 1.68 1.69 0 0 1.68 1.68 0 0 1.69 1.68 0 0 1.68 1.68 0 0 1.68 1.68 0 0 1.69 1.69 0 0 -3.37 -1.69 0 0 -3.37 -1.68 0 0 -3.36 -3.36 0 0 -3.36 -1.68 0 0 -8.42 1.68 0 0 1.69 1.68 0 0 1.68 1.68 0 0 1.68 1.68 0 0 8.41 1.69 0 0 3.37 1.68 0 0 3.36 1.68 0 0 3.37 1.68 0 0 1.68 1.69 0 0 1.68 6.73 0 0 1.68 8.41 0 0 -1.68 1.68 0 0 1.68 6.73 0 0 -1.68 5.05 0 0 -1.68 5.05 0 0 -1.68 1.68 0 0 -1.68 5.05 0 0 -1.69 1.68 0 0 -1.68 1.68 0 0 -1.68 1.68 0 0 -1.69 1.68 0 0 -1.68 1.69 0 0 -3.36 1.68 0 0 -1.68 -3.37 0z"/>
   <path class="fil2" d="M117.9 71.41l0 -3.37 1.68 0 0 1.69 1.69 0 0 1.68 1.68 0 0 1.68 1.68 0 0 1.68 1.68 0 0 1.69 1.68 0 0 1.68 1.69 0 0 15.14 -1.69 0 0 3.36 -1.68 0 0 5.05 1.68 0 0 5.05 1.69 0 0 -1.68 1.68 0 0 -3.37 1.68 0 0 -6.73 -1.68 0 0 -10.09 3.36 0 0 5.04 1.69 0 0 5.05 1.68 0 0 6.73 -1.68 0 0 1.68 -1.69 0 0 1.69 -1.68 0 0 3.36 1.68 0 0 -1.68 1.69 0 0 -1.68 1.68 0 0 8.41 -1.68 0 0 3.36 -1.69 0 0 5.05 -3.36 0 0 1.68 -3.37 0 0 1.69 3.37 0 0 1.68 -1.68 0 0 3.36 -1.69 0 0 1.68 -1.68 0 0 1.69 -1.68 0 0 1.68 -1.68 0 0 1.68 -1.68 0 0 1.69 -5.05 0 0 1.68 -1.68 0 0 1.68 -5.05 0 0 1.68 -5.05 0 0 1.68 -6.73 0 0 -1.68 -1.68 0 0 1.68 -8.41 0 0 -1.68 -6.73 0 0 -1.68 -1.69 0 0 -1.68 -1.68 0 0 -3.37 -1.68 0 0 -3.36 -1.68 0 0 -3.37 -1.69 0 0 -8.41 -1.68 0 0 -1.68 -1.68 0 0 -1.68 -1.68 0 0 -1.69 -1.68 0 0 8.42 1.68 0 0 3.36 3.36 0 0 3.36 1.68 0 0 3.37 1.69 0 0 3.37 -1.69 0 0 -1.69 -1.68 0 0 -1.68 -1.68 0 0 -1.68 -1.68 0 0 -1.69 -1.68 0 0 -1.68 -1.69 0 0 -1.68 -1.68 0 0 -15.14 1.68 0 0 -1.68 1.69 0 0 -8.42 -1.69 0 0 -3.36 -1.68 0 0 3.36 -1.68 0 0 1.69 -1.68 0 0 6.73 1.68 0 0 11.77 -1.68 0 0 -3.36 -1.69 0 0 -3.37 -1.68 0 0 -13.46 -1.68 0 0 -5.04 1.68 0 0 -6.73 1.68 0 0 -5.05 1.69 0 0 -1.68 3.36 0 0 -1.69 3.37 0 0 -1.68 3.36 0 0 -1.68 8.41 0 0 -1.68 1.68 0 0 -1.68 1.69 0 0 -1.69 1.68 0 0 -1.68 -8.41 0 0 1.68 -1.69 0 0 1.69 -1.68 0 0 1.68 -3.36 0 0 1.68 -3.37 0 0 1.68 -1.68 0 0 -3.36 1.68 0 0 -1.68 1.69 0 0 -1.69 1.68 0 0 -1.68 1.68 0 0 -1.68 1.68 0 0 -1.68 15.14 0 0 1.68 3.37 0 0 1.68 6.73 0 0 -1.68 3.36 0 0 -1.68 -1.68 0 0 -1.69 -3.36 0 0 -1.68 -6.73 0 0 1.68 -11.78 0 0 -1.68 3.36 0 0 -1.68 3.37 0 0 -1.69 13.46 0 0 1.69 1.68 0 0 1.68 3.37 0 0 -1.68 -1.69 0 0 -1.69 8.41 0 0 1.69 5.05 0 0 1.68 1.69 0 0 1.68 1.68 0 0 3.37 1.68 0zm-67.3 43.74l0 1.68 1.68 0 0 1.69 1.69 0 0 3.36 1.68 0 0 1.68 1.68 0 0 3.37 1.69 0 0 3.36 1.68 0 0 1.68 1.68 0 0 1.69 1.68 0 0 1.68 3.37 0 0 1.68 -1.68 0 0 1.69 3.36 0 0 1.68 3.36 0 0 1.68 1.69 0 0 1.68 3.36 0 0 1.68 6.73 0 0 1.69 1.68 0 0 1.68 13.46 0 0 -1.68 8.41 0 0 1.68 -1.68 0 0 1.68 -6.73 0 0 1.68 -1.68 0 0 1.69 -1.68 0 0 3.36 -1.68 0 0 3.37 3.36 0 0 -1.69 5.05 0 0 -1.68 1.68 0 0 -1.68 1.68 0 0 -3.37 1.68 0 0 -1.68 1.69 0 0 -1.68 1.68 0 0 -1.68 1.68 0 0 -1.69 1.69 0 0 -1.68 3.36 0 0 -1.68 1.68 0 0 -1.68 3.37 0 0 -1.68 1.68 0 0 -1.69 1.68 0 0 -1.68 1.68 0 0 3.37 -1.68 0 0 1.68 -1.68 0 0 1.68 -1.68 0 0 11.78 1.68 0 0 -1.69 1.68 0 0 -1.68 1.68 0 0 -1.68 1.69 0 0 -11.78 1.68 0 0 -6.73 1.68 0 0 -3.36 1.68 0 0 -1.68 1.69 0 0 -3.37 1.68 0 0 -6.73 1.68 0 0 -1.68 1.69 0 0 -15.14 -1.69 0 0 -6.73 1.69 0 0 -1.69 -1.69 0 0 -1.68 -1.68 0 0 -3.36 -1.68 0 0 -1.69 -1.69 0 0 -3.36 -1.68 0 0 -1.68 -1.68 0 0 -3.37 -1.68 0 0 -1.68 -1.69 0 0 -1.68 3.37 0 0 1.68 1.68 0 0 1.68 1.68 0 0 1.69 10.1 0 0 -1.69 -1.68 0 0 -1.68 -1.68 0 0 -1.68 -1.69 0 0 -1.68 -11.78 0 0 -1.69 -5.04 0 0 -1.68 -3.37 0 0 -1.68 -1.68 0 0 -1.69 -5.05 0 0 -1.68 -3.36 0 0 -1.68 11.78 0 0 -1.68 3.36 0 0 -1.68 1.68 0 0 -1.69 -5.04 0 0 -1.68 -6.73 0 0 1.68 -1.69 0 0 1.69 -3.36 0 0 1.68 -6.73 0 0 1.68 -16.83 0 0 -1.68 3.37 0 0 -1.68 3.36 0 0 -1.69 1.69 0 0 -1.68 1.68 0 0 -3.36 1.68 0 0 -3.37 -1.68 0 0 1.68 -5.05 0 0 1.69 -3.36 0 0 3.36 -1.69 0 0 3.37 -1.68 0 0 1.68 -1.68 0 0 1.68 -1.68 0 0 1.68 -3.37 0 0 1.68 -1.68 0 0 1.69 -3.37 0 0 1.68 -1.68 0 0 1.68 -3.36 0 0 -1.68 1.68 0 0 -3.37 1.68 0 0 -8.41 -3.36 0 0 1.69 -1.68 0 0 1.68 -1.69 0 0 1.68 -1.68 0 0 11.78 -1.68 0 0 6.73 -1.68 0 0 1.68 -1.69 0 0 3.36 -1.68 0 0 3.37 -1.68 0 0 6.73 -1.69 0 0 -15.14 -1.68 0 0 -1.68 -1.68 0 0 -1.69 -1.68 0 0 3.37 -1.68 0 0 6.73 1.68 0 0 1.68 1.68 0 0 3.36 1.68 0 0 6.73 1.68 0 0 18.51 -1.68 0z"/>
   <polygon class="fil2" points="50.6,115.15 50.6,111.79 48.92,111.79 48.92,106.74 47.24,106.74 47.24,105.06 45.56,105.06 45.56,103.37 42.19,103.37 42.19,101.69 38.83,101.69 38.83,105.06 40.51,105.06 40.51,110.1 42.19,110.1 42.19,111.79 43.87,111.79 43.87,113.47 48.92,113.47 48.92,115.15 "/>
   <polygon class="fil2" points="141.46,91.6 141.46,94.96 143.14,94.96 143.14,100.01 144.82,100.01 144.82,101.69 146.5,101.69 146.5,103.37 149.87,103.37 149.87,105.06 153.23,105.06 153.23,103.37 151.55,103.37 151.55,96.64 149.87,96.64 149.87,94.96 148.18,94.96 148.18,93.28 143.14,93.28 143.14,91.6 "/>
   <polygon class="fil2" points="70.79,148.8 69.11,148.8 69.11,150.48 67.43,150.48 67.43,152.16 69.11,152.16 69.11,153.85 77.52,153.85 77.52,152.16 80.89,152.16 80.89,150.48 82.57,150.48 82.57,148.8 80.89,148.8 80.89,147.12 70.79,147.12 "/>
   <polygon class="fil2" points="141.46,120.2 139.77,120.2 139.77,128.61 141.46,128.61 141.46,130.29 143.14,130.29 143.14,133.66 144.82,133.66 144.82,128.61 146.5,128.61 146.5,121.88 144.82,121.88 144.82,118.52 143.14,118.52 143.14,116.83 141.46,116.83 "/>
   <polygon class="fil2" points="117.9,71.41 117.9,76.46 119.58,76.46 119.58,84.87 121.27,84.87 121.27,86.55 122.95,86.55 122.95,88.23 124.63,88.23 124.63,89.91 126.31,89.91 126.31,81.5 124.63,81.5 124.63,78.14 121.27,78.14 121.27,74.77 119.58,74.77 119.58,71.41 "/>
   <polygon class="fil2" points="77.52,133.66 79.2,133.66 79.2,137.02 82.57,137.02 82.57,138.71 87.62,138.71 87.62,140.39 90.98,140.39 90.98,138.71 89.3,138.71 89.3,137.02 87.62,137.02 87.62,133.66 85.93,133.66 85.93,131.97 84.25,131.97 84.25,130.29 77.52,130.29 "/>
   <polygon class="fil2" points="64.06,135.34 60.7,135.34 60.7,133.66 59.02,133.66 59.02,131.97 57.33,131.97 57.33,130.29 47.24,130.29 47.24,131.97 48.92,131.97 48.92,133.66 50.6,133.66 50.6,135.34 52.28,135.34 52.28,137.02 64.06,137.02 "/>
   <polygon class="fil2" points="97.71,135.34 94.35,135.34 94.35,138.71 97.71,138.71 97.71,140.39 104.44,140.39 104.44,138.71 112.85,138.71 112.85,137.02 106.12,137.02 106.12,135.34 102.76,135.34 102.76,133.66 97.71,133.66 "/>
   <polygon class="fil2" points="127.99,125.25 122.95,125.25 122.95,126.93 116.22,126.93 116.22,128.61 112.85,128.61 112.85,130.29 111.17,130.29 111.17,133.66 119.58,133.66 119.58,131.97 121.27,131.97 121.27,130.29 122.95,130.29 122.95,128.61 124.63,128.61 124.63,126.93 127.99,126.93 "/>
   <polygon class="fil2" points="133.04,108.42 131.36,108.42 131.36,110.1 129.68,110.1 129.68,111.79 126.31,111.79 126.31,113.47 124.63,113.47 124.63,116.83 122.95,116.83 122.95,121.88 126.31,121.88 126.31,120.2 129.68,120.2 129.68,116.83 131.36,116.83 131.36,111.79 133.04,111.79 "/>
   <polygon class="fil2" points="102.76,69.73 104.44,69.73 104.44,73.09 106.12,73.09 106.12,74.77 107.8,74.77 107.8,76.46 114.54,76.46 114.54,73.09 112.85,73.09 112.85,71.41 111.17,71.41 111.17,69.73 109.49,69.73 109.49,68.04 102.76,68.04 "/>
   <polygon class="fil2" points="65.75,86.55 64.06,86.55 64.06,88.23 62.38,88.23 62.38,89.91 60.7,89.91 60.7,96.64 62.38,96.64 62.38,94.96 65.75,94.96 65.75,93.28 67.43,93.28 67.43,91.6 69.11,91.6 69.11,84.87 65.75,84.87 "/>
  </g>
 </g>
</svg>
